Coordinates
version=1
nRows=65
nColumns=12
inDegrees=yes

Units are S.I. units (second, meters, Newtons, ...)
Angles are in degrees

endheader
time	SC_y	SC_z	SC_x	AC_y	AC_z	AC_x	GH_y	GH_z	GH_yy	EL_x	PS_y
       0.0              -55.23          22.33          74.64          43.17         -19.76          16.58          36.38           58.8         -122.3          7.296          13.27
   0.03366              -55.23          22.33          74.65          43.17         -19.75          16.58           36.4          58.79         -122.3          7.311          13.27
   0.06733              -55.23          22.32          74.65          43.18         -19.75          16.58          36.42          58.79         -122.3          7.327          13.28
     0.101              -55.22          22.32          74.65          43.18         -19.75          16.57          36.44          58.78         -122.3          7.345          13.29
    0.1347              -55.22          22.32          74.65          43.18         -19.75          16.57          36.46          58.77         -122.3          7.364           13.3
    0.1683              -55.22          22.31          74.65          43.19         -19.75          16.57          36.48          58.77         -122.3          7.383          13.31
     0.202              -55.22          22.31          74.65          43.19         -19.75          16.57          36.51          58.76         -122.3          7.405          13.32
    0.2357              -55.22           22.3          74.65          43.19         -19.74          16.56          36.53          58.75         -122.3          7.427          13.33
    0.2693              -55.22           22.3          74.65           43.2         -19.74          16.56          36.56          58.74         -122.3          7.452          13.34
     0.303              -55.22          22.29          74.65           43.2         -19.74          16.56          36.59          58.73         -122.3          7.478          13.35
    0.3366              -55.22          22.28          74.65          43.21         -19.74          16.56          36.63          58.72         -122.3          7.506          13.36
    0.3703              -55.22          22.28          74.66          43.21         -19.73          16.55          36.66          58.71         -122.3          7.536          13.38
     0.404              -55.21          22.27          74.66          43.22         -19.73          16.55           36.7           58.7         -122.3          7.568          13.39
    0.4376              -55.21          22.26          74.66          43.22         -19.73          16.54          36.74          58.69         -122.3          7.603          13.41
    0.4713              -55.21          22.25          74.66          43.23         -19.72          16.54          36.79          58.67         -122.3          7.641          13.43
     0.505              -55.21          22.24          74.66          43.24         -19.72          16.53          36.84          58.66         -122.3          7.682          13.45
    0.5386              -55.21          22.23          74.67          43.25         -19.71          16.53          36.89          58.64         -122.3          7.727          13.47
    0.5723              -55.21          22.22          74.67          43.25         -19.71          16.52          36.95          58.63         -122.3          7.776          13.49
     0.606               -55.2          22.21          74.67          43.26          -19.7          16.52          37.01          58.61         -122.3          7.829          13.52
    0.6396               -55.2          22.19          74.67          43.27          -19.7          16.51          37.08          58.59         -122.3          7.887          13.54
    0.6733               -55.2          22.18          74.68          43.29         -19.69           16.5          37.15          58.56         -122.3          7.951          13.57
     0.707              -55.19          22.16          74.68           43.3         -19.68          16.49          37.24          58.54         -122.3          8.022          13.61
    0.7406              -55.19          22.14          74.68          43.31         -19.68          16.48          37.33          58.51         -122.3          8.099          13.64
    0.7743              -55.19          22.12          74.69          43.33         -19.67          16.47          37.43          58.48         -122.4          8.185          13.68
    0.8079              -55.18           22.1          74.69          43.34         -19.66          16.46          37.55          58.44         -122.4          8.281          13.73
    0.8416              -55.18          22.07           74.7          43.36         -19.65          16.45          37.67          58.41         -122.4          8.388          13.78
    0.8753              -55.17          22.05           74.7          43.38         -19.63          16.43          37.81          58.36         -122.4          8.508          13.84
    0.9089              -55.17          22.01          74.71          43.41         -19.62          16.42          37.97          58.32         -122.4          8.642           13.9
    0.9426              -55.16          21.98          74.72          43.44         -19.61           16.4          38.15          58.26         -122.4          8.794          13.97
    0.9763              -55.15          21.94          74.72          43.47         -19.59          16.38          38.36           58.2         -122.4          8.967          14.05
      1.01              -55.14          21.89          74.73           43.5         -19.57          16.36          38.59          58.13         -122.4          9.164          14.14
     1.044              -55.13          21.84          74.74          43.54         -19.55          16.33          38.86          58.05         -122.4          9.391          14.25
     1.077              -55.12          21.78          74.76          43.59         -19.52           16.3          39.17          57.95         -122.4          9.652          14.37
     1.111              -55.11          21.71          74.77          43.64         -19.49          16.26          39.53          57.85         -122.4          9.955          14.52
     1.145              -55.09          21.62          74.79           43.7         -19.45          16.22          39.95          57.72         -122.5          10.31          14.68
     1.178              -55.07          21.52          74.81          43.78         -19.41          16.17          40.45          57.57         -122.5          10.73          14.88
     1.212              -55.05          21.41          74.83          43.87         -19.36          16.11          41.03          57.39         -122.5          11.23          15.11
     1.246              -55.02          21.27          74.86          43.97          -19.3          16.04          41.74          57.18         -122.5          11.82          15.39
     1.279              -54.99           21.1           74.9           44.1         -19.23          15.95           42.6          56.92         -122.6          12.54          15.73
     1.313              -54.95          20.89          74.94          44.26         -19.14          15.84          43.64           56.6         -122.6          13.43          16.15
     1.347               -54.9          20.63          74.99          44.45         -19.03          15.71          44.93          56.22         -122.7          14.51          16.66
      1.38              -54.84          20.31          75.05          44.69         -18.89          15.55          46.53          55.73         -122.7          15.87          17.29
     1.414              -54.77          19.91          75.14          44.99         -18.72          15.34          48.56          55.12         -122.8          17.58           18.1
     1.448              -54.67           19.4          75.24          45.38          -18.5          15.08          51.13          54.34         -122.9          19.75          19.12
     1.481              -54.54          18.74          75.37          45.87         -18.22          14.75          54.43          53.35         -123.0          22.53          20.42
     1.515              -54.38           17.9          75.54           46.5         -17.86          14.32          58.65          52.07         -123.2           26.1           22.1
     1.549              -54.18          16.83          75.76          47.31          -17.4          13.77          64.05          50.44         -123.4          30.66          24.24
     1.582              -53.92          15.48          76.03          48.33         -16.83          13.08          70.84          48.39         -123.7          36.39          26.93
     1.616              -53.61          13.83          76.37          49.57         -16.12          12.24          79.11           45.9         -124.0          43.37          30.22
      1.65              -53.25          11.92          76.75           51.0         -15.31          11.27           88.7           43.0         -124.4          51.47          34.02
     1.683              -52.85           9.86          77.17          52.55         -14.43          10.22          99.08          39.87         -124.9          60.23          38.14
     1.717              -52.46          7.794          77.59          54.11         -13.54          9.163          109.5          36.73         -125.3           69.0          42.26
     1.751               -52.1          5.887          77.98          55.54         -12.73           8.19          119.0          33.84         -125.7          77.09          46.06
     1.784              -51.78          4.242          78.31          56.78         -12.02          7.351          127.3          31.34         -126.0          84.08          49.34
     1.818              -51.53          2.891          78.58           57.8         -11.45          6.662          134.1          29.29         -126.3          89.81          52.03
     1.852              -51.32          1.818           78.8          58.61         -10.99          6.114          139.5          27.66         -126.5          94.36          54.17
     1.885              -51.16         0.9768          78.97          59.24         -10.63          5.685          143.7          26.38         -126.7          97.93          55.85
     1.919              -51.04         0.3217           79.1          59.73         -10.35          5.351          147.0          25.39         -126.8          100.7          57.16
     1.953              -50.94        -0.1901          79.21          60.12         -10.13           5.09          149.6          24.61         -126.9          102.9          58.18
     1.986              -50.86        -0.5927          79.29          60.42         -9.959          4.885          151.6           24.0         -127.0          104.6          58.98
      2.02               -50.8        -0.9123          79.35          60.66         -9.822          4.721          153.2          23.52         -127.1          105.9          59.62
     2.054              -50.75         -1.169          79.41          60.85         -9.713          4.591          154.5          23.13         -127.1          107.0          60.13
     2.087              -50.71         -1.376          79.45          61.01         -9.624          4.485          155.6          22.81         -127.1          107.9          60.54
     2.121              -50.68         -1.546          79.48          61.14         -9.551          4.398          156.4          22.55         -127.2          108.6          60.88
     2.155              -50.65         -1.687          79.51          61.24         -9.491          4.326          157.1          22.34         -127.2          109.2          61.16
